# xmcd
#
# Track frame offsets:
# 151
# 17320
# 32575
# 46964
# 64792
# 79461
# 94918
# 114161
# 130794
# 143153
# 159976
# 175681
# 186064
# 202574
# 215915
# 229938
# 245901
# 261317
#
# Disc length: 3693 seconds
#
#
# Revision: 0
# Processed by: cddbd v1.5PL3 Copyright (c) Steve Scherf et al.
# Submitted via: FreeRIP 2.30 
#
DISCID=f20e6b12
DTITLE=咱的台灣歌-3
DYEAR=1900
DGENRE=
TTITLE0=悲情的城市
TTITLE1=哀愁火車站
TTITLE2=落大雨彼一日
TTITLE3=可憐燒酒仙
TTITLE4=黃昏的馬車
TTITLE5=關子嶺之戀
TTITLE6=戀歌
TTITLE7=寶島曼波
TTITLE8=可憐小姑娘
TTITLE9=田莊兄哥
TTITLE10=風流阿狗兄
TTITLE11=滿山春色
TTITLE12=思想起
TTITLE13=補破網
TTITLE14=放浪人生
TTITLE15=難忘的鳳凰橋
TTITLE16=五月花
TTITLE17=流浪的馬車
EXTD=
EXTT0=
EXTT1=
EXTT2=
EXTT3=
EXTT4=
EXTT5=
EXTT6=
EXTT7=
EXTT8=
EXTT9=
EXTT10=
EXTT11=
EXTT12=
EXTT13=
EXTT14=
EXTT15=
EXTT16=
EXTT17=
PLAYORDER=
